<?xml version="1.0" encoding="iso-8859-1"?>
<!-- Generator: Adobe Illustrator 19.0.0, SVG Export Plug-In . SVG Version: 6.00 Build 0)  -->
<svg version="1.1" id="Capa_1" xmlns="http://www.w3.org/2000/svg" xmlns:xlink="http://www.w3.org/1999/xlink" x="0px" y="0px"
	 viewBox="0 0 512 512" style="enable-background:new 0 0 512 512;" xml:space="preserve">
<path style="fill:#947165;" d="M256,484.62c-19.517,0-37.866-7.6-51.666-21.401L48.455,307.34
	c-64.049-64.049-64.684-167.986-1.415-231.692C77.951,44.521,119.13,27.38,162.991,27.38c33.723,0,65.891,10.148,93.009,28.998
	c27.118-18.85,59.285-28.998,93.008-28.998c43.861,0,85.041,17.142,115.952,48.268c63.269,63.708,62.634,167.645-1.416,231.693
	L307.666,463.22C293.866,477.021,275.517,484.62,256,484.62z"/>
<path style="fill:#F4D06D;" d="M248.005,90.407c-51.795-43.966-129.59-41.399-178.35,7.699
	C18.428,149.688,19.588,233.4,70.992,284.804l155.879,155.879c16.087,16.087,42.17,16.087,58.257,0l155.879-155.879
	c51.404-51.404,52.564-135.116,1.338-186.697c-48.757-49.096-126.545-51.665-178.34-7.708
	C259.384,94.321,252.625,94.329,248.005,90.407z"/>
<g>
	<path style="fill:#ED6EA4;" d="M352.274,305.522c-41.801,0-75.687,33.886-75.687,75.687c0,18.948,6.979,36.255,18.485,49.531
		l106.733-106.733C388.528,312.501,371.221,305.522,352.274,305.522z"/>
	<path style="fill:#ED6EA4;" d="M132.783,62.757c-23.154,5.44-45.122,17.218-63.128,35.349c-20.619,20.762-32.743,46.73-36.528,73.7
		c11.098,6.385,23.956,10.056,37.679,10.056c41.801,0,75.687-33.886,75.687-75.687C146.492,90.016,141.411,75.051,132.783,62.757z"
		/>
	<path style="fill:#ED6EA4;" d="M142.646,259.113c-26.44,0-49.701,13.567-63.235,34.11l104.812,104.812
		c20.543-13.534,34.11-36.795,34.11-63.235C218.333,292.999,184.447,259.113,142.646,259.113z"/>
	<path style="fill:#ED6EA4;" d="M350.993,59.27c-30.927-0.464-61.986,9.911-86.989,31.129c-4.621,3.921-11.38,3.93-16,0.008
		c-14.014-11.895-29.933-20.377-46.663-25.46c-0.286,2.673-0.441,5.385-0.441,8.134c0,41.8,33.886,75.687,75.687,75.687
		s75.687-33.886,75.687-75.687C352.274,68.361,351.82,63.75,350.993,59.27z"/>
	<path style="fill:#ED6EA4;" d="M474.464,151.825c-14.926-18.451-37.739-30.258-63.32-30.258c-44.965,0-81.417,36.451-81.417,81.416
		s36.451,81.416,81.417,81.416c14.27,0,27.675-3.682,39.337-10.131C478.812,239.249,486.985,193.004,474.464,151.825z"/>
</g>
<path style="opacity:0.12;enable-background:new    ;" d="M442.345,98.106c-20.087-20.226-45.101-32.554-71.194-36.987
	c15.132,6.464,29.302,15.888,41.617,28.288c51.226,51.582,50.067,135.293-1.338,186.697l-155.878,155.88
	c-7.021,7.02-15.944,10.975-25.11,11.869c16.17,12.827,39.74,11.777,54.687-3.17l155.879-155.879
	C492.412,233.4,493.572,149.688,442.345,98.106z"/>
<g>
	<path style="fill:#394049;" d="M270.789,223.135c-5.669,0-10.851-2.128-14.789-5.626c-3.938,3.498-9.119,5.626-14.789,5.626
		c-12.29,0-22.288-9.998-22.288-22.288c0-4.143,3.358-7.5,7.5-7.5s7.5,3.357,7.5,7.5c0,4.019,3.27,7.288,7.288,7.288
		c4.019,0,7.289-3.27,7.289-7.288c0-4.143,3.358-7.5,7.5-7.5s7.5,3.357,7.5,7.5c0,4.019,3.269,7.288,7.289,7.288
		c4.018,0,7.288-3.27,7.288-7.288c0-4.143,3.358-7.5,7.5-7.5s7.5,3.357,7.5,7.5C293.077,213.137,283.078,223.135,270.789,223.135z"
		/>
	<path style="fill:#394049;" d="M360.813,198.903c-4.142,0-7.5-3.357-7.5-7.5v-7.672c0-4.143,3.358-7.5,7.5-7.5s7.5,3.357,7.5,7.5
		v7.672C368.313,195.546,364.956,198.903,360.813,198.903z"/>
	<path style="fill:#394049;" d="M151.186,198.903c-4.142,0-7.5-3.357-7.5-7.5v-7.672c0-4.143,3.358-7.5,7.5-7.5s7.5,3.357,7.5,7.5
		v7.672C158.686,195.546,155.329,198.903,151.186,198.903z"/>
</g>
<g>
	<path style="fill:#FFFFFF;" d="M159.727,231.398h-17.08c-4.142,0-7.5-3.357-7.5-7.5s3.358-7.5,7.5-7.5h17.08
		c4.142,0,7.5,3.357,7.5,7.5S163.869,231.398,159.727,231.398z"/>
	<path style="fill:#FFFFFF;" d="M369.353,231.398h-17.08c-4.142,0-7.5-3.357-7.5-7.5s3.358-7.5,7.5-7.5h17.08
		c4.142,0,7.5,3.357,7.5,7.5S373.496,231.398,369.353,231.398z"/>
</g>
<circle style="opacity:0.12;enable-background:new    ;" cx="314.43" cy="368.13" r="7.258"/>
<circle style="opacity:0.12;enable-background:new    ;" cx="135.39" cy="291.66" r="7.258"/>
<circle style="opacity:0.12;enable-background:new    ;" cx="164.06" cy="340.32" r="7.258"/>
<circle style="opacity:0.12;enable-background:new    ;" cx="451" cy="181.86" r="7.258"/>
<circle style="opacity:0.12;enable-background:new    ;" cx="401.8" cy="156.03" r="7.258"/>
<circle style="opacity:0.12;enable-background:new    ;" cx="419.25" cy="245.2" r="7.258"/>
<circle style="opacity:0.12;enable-background:new    ;" cx="263.26" cy="118.57" r="7.258"/>
<circle style="opacity:0.12;enable-background:new    ;" cx="321.69" cy="92.97" r="7.258"/>
<circle style="opacity:0.12;enable-background:new    ;" cx="82.55" cy="156.03" r="7.258"/>
<circle style="opacity:0.12;enable-background:new    ;" cx="107" cy="111.32" r="7.258"/>
<g>
</g>
<g>
</g>
<g>
</g>
<g>
</g>
<g>
</g>
<g>
</g>
<g>
</g>
<g>
</g>
<g>
</g>
<g>
</g>
<g>
</g>
<g>
</g>
<g>
</g>
<g>
</g>
<g>
</g>
</svg>
