<svg id="Layer_1" enable-background="new 0 0 508.651 508.651" height="512" viewBox="0 0 508.651 508.651" width="512" xmlns="http://www.w3.org/2000/svg"><g fill="#c69a85"><path d="m417.594 184.067-56.311-120.758c-11.718-25.128-41.694-36.037-66.822-24.321-25.188 11.745-36.068 41.632-24.322 66.822l56.311 120.758c2.715 5.822 8.485 9.242 14.512 9.242 4.956 0 2.083.674 68.894-30.48 8.003-3.734 11.471-13.256 7.738-21.263z"/><path d="m214.191 38.988c-25.127-11.718-55.104-.807-66.822 24.321l-56.31 120.758c-3.732 8.005-.268 17.529 7.739 21.263 66.9 31.196 63.969 30.48 68.894 30.48 6.025 0 11.797-3.421 14.512-9.242l56.311-120.758c11.743-25.188.866-55.076-24.324-66.822z"/><path d="m468.881 167.536h-429.11c-25.756 0-44.733 24.121-38.618 49.175l52.713 216.036c5.979 24.508 27.774 41.625 53.001 41.625h294.918c25.227 0 47.021-17.117 53.001-41.625l52.713-216.036c6.107-25.021-12.828-49.175-38.618-49.175z"/></g><path d="m468.881 167.536h-429.11c-25.756 0-44.733 24.121-38.618 49.175l43.192 177.017c34.52.168 74.917-8.359 122.06-29.719 126.741-57.426 235.932-49.906 312.222-28.97l28.872-118.327c6.107-25.022-12.828-49.176-38.618-49.176z" fill="#8bc4ff"/><path d="m468.881 167.536h-429.11c-25.756 0-44.733 24.121-38.618 49.175l43.192 177.017c34.52.168 74.917-8.359 122.06-29.719 126.741-57.426 235.932-49.906 312.222-28.97l28.872-118.327c6.107-25.022-12.828-49.176-38.618-49.176z" fill="#dfb7a4"/><path d="m468.881 167.536h-429.11c-24.275 0-42.591 21.431-39.399 45.009 25.307 6.549 56.734 18.346 93.905 39.079 91.007 50.76 318.709 27.507 407.93-13.229l5.291-21.683c6.108-25.022-12.827-49.176-38.617-49.176z" fill="#e0c8bf"/><path d="m254.326 248.338c-8.837 0-16 7.164-16 16v113.232c0 8.836 7.163 16 16 16s16-7.164 16-16v-113.232c0-8.836-7.163-16-16-16z" fill="#fff"/><path d="m364.476 248.723c-8.622-1.926-17.178 3.501-19.105 12.124l-25.314 113.233c-2.23 9.976 5.356 19.494 15.629 19.494 7.326 0 13.935-5.065 15.6-12.513l25.314-113.232c1.927-8.624-3.5-17.177-12.124-19.106z" fill="#fff"/><path d="m163.281 260.848c-1.929-8.624-10.479-14.053-19.105-12.124-8.623 1.928-14.051 10.482-12.123 19.105l25.314 113.232c1.665 7.448 8.272 12.513 15.6 12.513 10.263 0 17.861-9.51 15.629-19.494z" fill="#fff"/></svg>